<mxfile host="app.diagrams.net" modified="2024-04-06T15:52:02.347Z" agent="Mozilla/5.0 (Windows NT 10.0; Win64; x64) AppleWebKit/537.36 (KHTML, like Gecko) Chrome/123.0.0.0 Safari/537.36" etag="FqtJxNFAYZGgNWmC7Tcs" version="24.2.2" type="device">
  <diagram name="PÃ¡gina-1" id="cmfi5wh4Lcjh-zbffLjC">
    <mxGraphModel dx="696" dy="381" grid="1" gridSize="10" guides="1" tooltips="1" connect="1" arrows="1" fold="1" page="1" pageScale="1" pageWidth="827" pageHeight="1169" math="0" shadow="0">
      <root>
        <mxCell id="0" />
        <mxCell id="1" parent="0" />
        <mxCell id="bbH6vb18r9si8D3Xo2T3-1" value="" style="shape=image;verticalLabelPosition=bottom;labelBackgroundColor=default;verticalAlign=top;aspect=fixed;imageAspect=0;image=data:image/png,iVBORw0KGgoAAAANSUhEUgAAAwkAAAC7CAYAAAAucdJvAAAAAXNSR0IArs4c6QAAAARnQU1BAACxjwv8YQUAAAAJcEhZcwAADsMAAA7DAcdvqGQAAA8ISURBVHhe7d07r1vHuQZg6rQuFQeKAVdpjzsBhivD7iS3AdQKwekP/EuM9EGQxoUAF67UuoxtqHMqA6lcRDiI/oAbHc0Ov42ZlVn3K8nnAQYi16zrLIr8XnJx88Hbd04AAABn/3X+FwAA4I6QAAAAFIQEAACgICQAAAAFIQEAACgICQAAQEFIaPHbj/54vgUAALflpkNCCgLRcgICAAC37GZ/TK0ZBP7vp7/c/ZtPj2lLq4WQtbYFAABj/UdIGPIu+qUXtLUgsEU4CEICAABHNulyoyFB4hKlQn2LYn2r7QAAwBStnyS0FbFbvuO+lr5j3Mo1jCUAANdndEhIhhS3+Ty5oevNjV0m5q8dS982asvkpuxjm3xdbfs4Zb0AADDHpMuNugrXVOC2FdJJW9/YZbq209U3R9c619omAABsbfafQO0qjFOYyFtoLpPfb1umy5hl8v6hyyRz9xEAAC7For+T0Cykm+YU1Pm619xOzZjt5fNOldYXDQAAtrbKj6kNKW7biunm9KkFswIbAACmWSUkpEK/rdU0C/q++cPWQaBre0IJAADXYpWQMEUqsmuF9pCwAAAALGd2SKgV9lHw97Watv5aUOgKD2sEi623BwAAe5gUEvoK4r5iutkf05rT24IEAACwnlEhoVnIN4v4/H6z4E9q06bYajthzPaWCDZpfdEAAGBrrb+43KerGO5bR23ZpZdJ80d/c9m26cmQvja1Zbrk68uXbZsOAABbGH25USpa+wrXrv62viWX6VrXHFP2EQAALs1/fJIAAADctsP8CVQAAOAYhAQAAKAgJAAAAAUhAQAAKAgJAABAQUgAAAAKQgIAAFAQEgAAgIKQAAAAFIQEAACgICQAAAAFIQEAACgICQAAQEFIAAAACkICAABQEBIAAICCkAAAABSEBAAAoCAkAAAABSEBAAAoCAkAAEBBSAAAAApCAgAAUBASAACAgpAAAAAUhAQAAKAgJAAAAAUhAQAAKDx4+8759r0XL16cXr58eXr16tXp9evX56kAAMBcjx49Oj1+/Pj09OnT07Nnz85Tj6UICb/88svpyy+/PH333XfnKQAAwFo+++yz01dffXX68MMPz1OOoQgJT548Of3444/newAAwNo+/vjju6t4juT+Owlff/21gAAAABv74Ycf7mrxI7kPCd9+++35FgAAsKWj1eL3IeGnn3463wIAALZ0tFr8/jsJDx8+vJsAAABs782bN+db+/M7CQAAQEFIAAAACkICAABQEBIAAICCkAAAABSEBAAAoCAkAAAABSEBAAAoCAkAAEBBSAAAAApCAgAAUBASAACAgpAAAAAUhAQAAKAgJFyAN2/e3Lfc33/4411r3l7Kpa+/z9rbX2L9U5cbIl/3Gtux/n5rrTfJ173GdtZe/9qG7H/bcy/ALRASLsTDhw/v2hi1F73atCNq289L2f+h0vFEuyX5cTfbJbnU/d5CbVwubZymPO8CXAshgUP674//Ui0w0vRrEccTrVZARd+1yY+7dv8SDDl/fS7tmAG4HQ/evpNurPFuyR/+9o/TN5/8/nzv39qm5fL+mL9rnj7xUXHzGNP0NG1q/1ZiP8aqFdX5tLidFzdHKlia+992PLmu+WvL72XIvuTH1jZv3zHm60iOcvy5rrE46v537XOua//zvtq6YhsxX9s8TUP2awv5/sc+5beT5v439702/9DlY96Yp7nuMbqeg/d+fQCuSzynHMHqnyQ0i/umCAHRamIdXfO0iSf31GoDP7f/0sULabyANl9095S/wMd+5vIX/yPu/1z5cU1x6eNz7fufT2+T5o/5msee98V64t9L0Dc+fYYsn4/RmHUDsHJI6CvoIyAMMTYchFTcd5nb3+Wfv3lebUcSL65JfvtSXPr+J6l4iTZF13LO7/q6zt/c/b/EczbGkPGZ8/jeYvziTSSAa7PpdxLGhIJcc5kx60jv/kfrs3Rg+N2//lptDJde5FORsMWL/V7SsU09vny52jhF8RqN5c05f7cgjU3bY6/v8bnk49s5AhjnUF9c7rs0aaz8UqE93umpfYqQGmwlFUbNxvXIC+RLPLfNx+bYY5i7PADtNgsJfZ8i5N87CEuGhj2+T1D7FCG1vfS90za10Bj6Sc0a8mPqOr6+Y++yxvGlcZ6zT0MtsY1LOL9d9jx/S+x/lyiMp/y/DVuc37bxmjsma4zpWFuMH8AeVv3rRkmt+M/l/c0g0bw/RfPJOz/O1Nd13H39W5mzH80X0byY6OobI8Z4rbFK+9m2b33HEP1RpEw5xjWPr2v/m32hdgxtx1Zbx9gxOPL5HWKv85d09dfOTRLzNMeldr+puf0h1hqftv2dcgzNdYWu5duWmSKNUdv4rP3/A7gt8ZxyBKuHBObreoGaY6sX0Wtw7cfX59KP/xrPX+3/79T/07f++O7TNz7GD1hKej45ikN9J4HLkx7M1/wCee3H1+fSj//Wz18f4zOP8QOumU8SLkB6EQpLnqclP0kAtpf+D+f8f17WWs+9AG3y5529CQkAAHAARwoJLjcCAAAKQgIAAFAQEgAAgIKQAAAAFIQEAACgICQAAAAFIQEAACgICQAAQGGzkPDP3zy/b2s50g9QhLRPR9yvLfzhb/+4b0d01P3K3fLjJ+w9Bkc+B0vu15GPE4DtbRISUjD43b/+et/WkF7c/Gr0sXzzye/v2p62CgJ//t/rLyLbpGPPG+uojW16zlviHMfzp+dQAMJVXG505IDghff6rVkYz338pGXT/4+1w8L//OnhXVvD3v+H9t5+0vUYi3MMAEvaPSTklyE1L0WK+7W+IWrvIrdNy1su7nfN0yaKs71fwNv2IaZN7V9C17jG/VpfiL685dPz23G/qauvTyre+orjqeMXy80d+yhw566npnn86XatoJ16HLHcGvs+xN7bT4Y8xgBgaauGhLy4rxX6cT+/DKk2T/Q3+5L04t31Ll9f8Zf647KYtktjYh1jL585wjuQMT6p1Qqduf1z1Ma1eb7y89PVF8vn/zZvx/1c1/qHWLN4i3FfQqxn6XPY1PWO9xRLjsEUe28/GfIYS/u49rkF4LasGhLy4j+/ncun9fWPVSsKc1EgDjF0viWlUFRrY/QVOHP758rHtTbGa4/7Fuc1jeHa4zhE7ENeTNYeX6mNlcJB1zvee41B7dhSAwC6XdR3EuYEhmRMKMg1l9misEzS8dbaGKkgjNanr4hbo8hL5yRvR3NNxWU8BvLzWHt8pTZGhIMjXhJTO7bUtnTkx1A8N+wR4AA4tqv44vJSjlakNouLaEPFi3+0I0qBq9nGyAPG2GWH2LO4XFItICS1x1dqYxwxHITasaW2pSM/huK5IR4fABAO8cXlsOaLd18RGQEhnyem7aVZXESbYs0iIK176vrnjnEEizUCwlLmjM8SYtu1oFh7fKU2VAoI+fcQ2i452msMaseWGgDQ7cHbd9KNNd9pTsV/2wtzMxjk83Utl0vFR9v+14r/XN6fbufzNe+P1VYUrTnWTc19yLfdNW5JX3+IbTTnbQsAzTFuiv6+89G1bC6fr299teW75AVyaBbJbePTp3nuwpj1DD2HczTHoC0kJHuMwRx7bz8Z+hibs09bPE4A6Nf2urOHTULC2rzA3aZaUT+l0N+Cx6gxWNPcsXVuAI4hPR8fxVV8JyG9uB1pUCGkx+WtF2DGYF3GFoA1XMUnCcGL5e3JLyVKjvgpAqxlyee8tK7EcyjAfuK5+AiuKiQAAMClOlJI8CdQAQCAgpAAAAAUhAQAAKAgJAAAAAUhAQAAKAgJAABAQUgAAAAKfidhR/nfwl1j/PMfGtviR8aW/GGnMbrGMfra9qtv2T2OBwC4TXldsjefJOwoFaBrFqEpGGz1C8R7F9RTx7JruTT9SP9ZAQC2IiQw25Hfce8KAUMICgDALbr6y42aBV7zOLv6o/iNeWpjNGf9IbZTM2T5Pumyo7ZPFPJLkpLmfM3+pDlP1/4ncQy1sUnTpvaHmK8plkvalg1t60i6+pK+/QMAGCKvXfZ2E58kpOItWi4v7qKveXKiQEytqy9absj6u8xdvk8EgPyypDwURLjI++PfEGPQJvpTq+373P4usdxcU7YNAHDJrjokRIHZJe+vzTu3yOxbf5+5y/fJi/5mAFhC3z7P7T+CtI+XsJ8AAEP5TsIMqTBMQSTaGvL1r7WNNY3Z92sIDAAA10BImCneRY7AsLR8/dG2lC45ijb2k4Y0HnvtNwAA0119SOgr3PP+NYr8uesfskyaZ+q+N7+D0JSCQbQ5pu7fJZgz/gAAR+SvG3X0p76++7naGPatv6ZvnuZ2Yp7m9FrRn+QFf3Oerr6kFhbS9mvHnvQdf9tySV9/aJuvue3QNm/btobsZzJkXwEA2rTVLnvwi8u0SiGhGQpq0/qK6LUtsf2udQxZ/95jAABcvlRPHIXvJDBbKo6P9KBeUl/xn/oFBADg2vgkgU5dlyM17VUs5wFl7Pa7llX8AwBbyuuSvQkJAABwAEcKCS43AgAACkICAABQEBIAAICCkAAAABSEBAAAoCAkAAAABSEBAAAorB4S0t97PdLffAUAALqtHhLSj7SlJigAAMBlcLkRAABQEBIAAICCkAAAABSEBAAAoLBZSIgvL/sCMwAAHNtmISGFg/hLRwAAwHG53AgAACgICQAAQEFIAAAACkICAABQWD0kxF808oVlAAC4DKuHBH/RCAAALovLjQAAgIKQAAAAFIQEAACgICQAAAAFIQEAACgICQAAQEFIAAAACkICAABQEBIAAICCkAAAABSEBAAAoCAkAAAABSEBAAAo3IeE999//3wLAADY0tFq8fuQ8NFHH51vAQAAWzpaLX4fEp4/f36+BQAAbOlotfh9SPjiiy9On3/++fkeAACwhSdPntzV4kfy4O0759unn3/++fTpp5+efv311/MUAABgLe+9997p+++/P33wwQfnKcdQhITw4sWL08uXL0+vXr06vX79+jwVAACY69GjR6fHjx+fnj59enr27Nl56rFUQwIAAHC7/E4CAABQEBIAAICCkAAAABSEBAAAoCAkAAAABSEBAAAoCAkAAEBBSAAAAApCAgAAUBASAACAgpAAAAAUhAQAAKAgJAAAAAUhAQAAyJxO/w+fyvyZNLY92QAAAABJRU5ErkJggg==;" vertex="1" parent="1">
          <mxGeometry x="100" y="10" width="664.81" height="160" as="geometry" />
        </mxCell>
        <mxCell id="bbH6vb18r9si8D3Xo2T3-2" value="" style="shape=image;verticalLabelPosition=bottom;labelBackgroundColor=default;verticalAlign=top;aspect=fixed;imageAspect=0;image=data:image/png,iVBORw0KGgoAAAANSUhEUgAAAwsAAAEBCAYAAAA3ojn1AAAAAXNSR0IArs4c6QAAAARnQU1BAACxjwv8YQUAAAAJcEhZcwAADsMAAA7DAcdvqGQAABNVSURBVHhe7d2/yyTHmQfw2UsVrnysxDlSLLhAIBQZK9tVKlC6HA4PjP8SY7hQHEocLChwtKlCyWaDA2UCRT6QOLT/gJP1lm5KKhVP/+7qHzOfDxQ709VdXd0z777Pd6bnnQevXrsAAABU/uX6LwAAwC8ICwAAQEhYAAAAQsICAAAQEhYAAICQsAAAAISEBQAAICQszPCv7/7H9RYAANwuYaFDCgS5lQQFAADuhW9wDtSB4P++/u8f/y2X52WtdIWS1vsFAIBsUlgY86r62YvZKBBsGRKSezjPAAAc3+qXIY0pdM8oFedbF+h5n3vsGwAAZr2z0FW4bv0KfAtDx9ja0Dnce34AANyPVcNCMiYwlOuUxo5bmrpNXj86lqF9RNuU5syxVo4RbTc07yn7AgCAPqtfhtRXrKaitqugTrr6pm7Tt5++viX6xpyyz3T+cgMAgD01/dOpfQVyWRSXhXG9TXm/a5s+U7Yp+8dukyyd41hjAwcAAKxhs+9ZqAvq2pLCuhy75X4iU/bXqthP+8gNAADWsvmXso0paLuK6nr53CL5jEX1UCgBAIC1bR4WUtHb1SJ1YTy0frZ1Qd23v6VzKY9VUAAAYCubh4U5UoEcFcljQsPZCQoAAOylaViIittc+A+1SFd/FBj6QkSLgNFif+V2XecEAABaWT0sDBXGQ0V13Z+X1ctvvXguj1dQAABgD6uFhbqgrwvc8n5d+CfRsjm22k82ZX9ji/6p26T1cwMAgLXM+gbnIX0F7tAY0bZrb5PWz/31tl3LkzF9XaJtIkPjlPKY5TZj9wMAAENWvQwpFapDxWpff1ffmtv0jbXEnDkCAMCRTXpnAQAAuB+n+NOpAADA9oQFAAAgJCwAAAAhYQEAAAgJCwAAQEhYAAAAQsICAAAQEhYAAICQsAAAAISEBQAAICQsAAAAIWEBAAAICQsAAEBIWAAAAELCAgAAEBIWAACAkLAAAACEhAUAACAkLAAAACFhAQAACAkLAABASFgAAABCwgIAABASFgAAgJCwAAAAhIQFAAAgJCwAAAAhYQEAAAg9ePXa9fYoz549uzx//vzy4sWLy/fff39dCgAALPXo0aPLe++9d3ny5Mnlk08+uS7dz+iw8Pe///3yhz/84fLFF19clwAAAK389re/vfzxj3+8/PrXv74u2d7osPD48ePL3/72t+s9AACgtffff//Hq3r2MuozC3/+858FBQAA2Nhf//rXH2vxvYwKC3/5y1+utwAAgC3tWYuPCgtff/319RYAALClPWvxUZ9ZePjw4fUWAACwtZcvX15vbcv3LAAAACFhAQAACAkLAABASFgAAABCwgIAABASFgAAgJCwAAAAhIQFAAAgJCwAAAAhYQEAAAgJCwAAQEhYAAAAQsICAAAQEhYAAICQsHByL1++/KkB5+FnF4AzePDqtevtTg8fPrze4mhSoTH0+Hz6+5eX3/1p/ccwjVtacx8txy7l/aw9fj3/pPVj0PL8Z2d6jFuPn6X9RGOP3f+Yn2EA2OvFJWHh5IYKjVywtCjE6jG7iqY1tBp7y/Ozti32UVpzf9FYa4+f5PHq+2vpG7c8nr5jExYAGGOvsLDbZUgff/nt9dbPupaVrZTv960zJJ346OTnZXP7j6CvQFmq1bhbanl+Wtt67mc8V+V8W8y975zUfel2WjbVkf9/AeA+7PqZhaHCPvV//sE7P7VIHqNvnS7pl3B6RS+16Bfy0v69tSiQbsWcwu2I0nHkdjblnM84/yk/X2c8PgBIdgsLQ4V9DgpjTA0JWSry+yzt7/Pdm0/DdlapGFo7nKQxc2sRfFqHqXL+LeTzklvr/aypnHN5HK20OjdDyuObI78YAQB7OcxfQ5oSDkr1NlPGSO8G5DZk7eDw1g+fhe2MWhViuYBMbc19LCnexirnvvb8s9bH0FI6H/lxyOdnzXNUjpn3s7W83z32DQBrOc2fTh26ZGmq8hKiPV65i95VSO1scoF3toKoLCTL+/xSOietHtty3Bb7SGPmtoe99gsAazpEWBh6V6H8XEK2ZnjY4/MG0bsKqW1t7DsrkVxc9xVFS8YfY874ZRGZ517eLq0x/74QsmT8ctyufawx/z5nGb8r9LSaf9pX/fhE+x/San4AMNaufzo1CgGlsr8OFPX9OepfwuVxpr6+4x7q30rfPKICsi5Y8jmYeixdxWmr8bsKrbnjl/oKuSPPf8w+1hi/a+7JGeafbHH+k3I/Y44vSXPo2v+S+QFwW/LvhK35noWT6ys0xlpjjD7G72f8fmcff8jQ/veeHwDHkH4f7EFYOLklhUR+0rV6fI3fz/j9zj7+WGke0RyOMj8AjiH/XtiasHBy5RPH4wTn4WcXgCmEBQAAILRXWDjNn04FAAC2JSwAAAAhYQEAAAgJCwAAQEhYAAAAQsICAAAQEhYAAICQsAAAAIR8KduJffr7X345x+/+5HECALhFvpSNWVJAEBIAAGhht3cWPv7y28vnH7xzvff/upaVyv68ft86feqEVh5n6uu635fstnoXJr2rUIeEaFme61bzAgBgfX31Z0u7vrNQF/m1HAZyi+Qx+taJ5OK/bFOV28zZfk31JUkAALDUbmFhqLDPQWGMKSFhLUuDwndvPg3bVCkkRO8oZGluewcZAADO6TCfWZgSDkr1NmPHSAV0encht6299cNnYZsihwSfWQAAoIXTfMB56JKlOfKr7jk4bCl6VyG1KYQEAABaOkRYGHpXofxcQtYiPHRpESSidxVSGysFhfJzCl2XIu31zgkAAOe3e1joCgppWerrCxJ9AWNILqJzq6/rLy9TqvuOJH9mAQAA1uZL2e7A0QMPAAD9Uj23h9N8ZoHpzvDOCAAAxyUs3LAUEgQFAADmEhYAAICQsAAAAISEBQAAICQsAAAAIWEBAAAICQsAAEBIWAAAAELCAgAAEDpEWPiv//m3n1ore31Fdp/8Dcu36taPr8/HX377UzuiLea19+N/5OffmvM68nECcH67h4UUEP7z3//3p9ZC+kXqm4y7ffp7hcbaPv/gnR/bno4aVO5F+rkqWyn9f7RGgZ//b/P/GwCt3PxlSEcOCkf4Jd8yKKx5fF45PZ+9n9977j/9XP3uTw9/0VoFBgBo6dBhobw8qb5EKd+P+saIXnXtWla2Ur7ft06XVCTktpdc0PSZO8c1jy+NMbfo65pDXja3fw19z5t8P+rLcl/ZyuXl7Xy/1teXzD3+vF2rczdkrf1/9+bT661phn6uAOAsdgsLZZEfFfz5fnl5UrRO7q/7klQo9BWZfUVSkvrz5SRdl5TkMaZedrLnq55Zy4JmreMbegz75G1Ti4rGpf1LRM+b+vlYPv/6+vL25b/17Xy/1Df+Uvm87WXv/Y/V4rkFAGvaLSyUIaC8XSqXDfVPFRVPpVxIjTF2vTWlVzyjtrY9i65crM81tO3S/qXK5030HGr9vBozfjoHrc9DJHpup3ZWY97FA4AjupnPLCwJDsmUcFCqt2ld4GVv/fBZ2PhZChu5DdkjOKTnXNn4WfTcTm0LdTip70/V4nNB+Xm9R5AD4L7c/Aec13K0Yq4sYMp2S1IhNKbQj+RCKrcjSsGyblOUQWPqtkcXPbdT20IdTur7U+SgsPa7Cvl5PffnAwDGOvwHnLPoMwlrGSq2clAo18nL9lIWMGVbW34Fcy9rFEQt57/k/Cx9DuWA0TIoLDm+JaLndmpn0iooAMCWHrx67Xq7U8tXZvOHlCN1QCjX69uulAqdrvlHIaBU9qfb5Xr1/am6CrCW57oWXR5RFzZ5nlPntfbx9T2OXeo5lNsPjTd2f3kf9bpdQaB+DtVy/9DzrW/bUrne0HjR9l3HN6Q+99nUceZaa//p3Yw5IaXr0qPo52vJOVm6PQDn0fW7rbXdw0Jrfpku5xweT1TcdxX8S3n821l6bj02APcj/Z+/h5v/zEL6RbrXyT27dN4UI/fL49+WcwvAGdz8OwuZX8zcmvISo6TFuwq0seb/R2msxP9vALct/3+/tbsJCwAAcFZ7hQV/OhUAAAgJCwAAQEhYAAAAQsICAAAQEhYAAICQsAAAAISEBQAAICQscNPS3yTOrda1POvbFgDgHggL3Lz0pYJzvlhw7nYAALdCWOBuCQMAAP0evHrtervTrRZU9eUl5XGmvq77fZelbHmujjD/7958ennrh8+u96bLc6n3m+c7tz/L69XydknXtlnXGMnQ/gEA1lDWLlu623cWcgFYtqnKbeZsv8TZ55+UxxD9ACzt75O3AwCgm8uQZioLzTlFZ3pFPmpbWTr/NQztd2n/FtIcjjAPAIAW7jYspAIvvRqd29bSpTtRG2vP+dfhpr4/1pT5DxXkCnYAgPXd9TsLqcDMbc+Cu2xT7DX/OtzU98dI8y3nDwDA8bgMaYQWhXhZYJetha2D0FRHn1+fNPczzx8AoM9df8C5bPWr2/nV+qjvCMq5R3M8+vzL+e2h3He+vddcAACO6q7/dCq3LwWApc/foTHW2AcAQJ+9XtR0GRLMlH5oBQUA4JYJC9y8XNRPNbRdCgmCAgBwy1yGBAAABzfnhc81eGcBAAAICQsAAEBIWAAAAELCAgAAEBIWAACAkLAAAACEhAUAACAkLBxU/kKwVn9Tt/X4ta32U+s7zq7l2dC2AAC3Tlg4qNbfDrzltw+nwnrPL/abe6x926XlAgMAcOuEBZraOyj06QsDYwgMAMCtu+uwkAq9stX6+vP9qC/LfV3rDPUPWbr9kKHx6/5onSFd2+Vlc/uH5O3mbDvFFvsAAGjl7t9ZyK8u168w5wKv7KuLvnQ/9/f15VYaM36fpdsPGRo/3c59uT//m+V1upRjlGNnS/v75O2WmrNvAICzuNuwkAvNPmV/tO7SYnNo/CFLtx+y5fiRpf1HkOZ4hnkCAER8ZqGRVCCmQJJbC+X4rfbR0pS530JwAAA4G2Ghofyqcg4OayvHz21LZbE/dd95mz3mDQDAOHf/Aec+Zf/QunMsHX/MNmmduXMfmt9axf7c+Z3BkvMPALC3B69eu97udKuv/NZFXH2cff2pb+h+KTqHQ+NHhtap95PX6Vpe6xt/6r6TtF60PBkav2u7ZKg/61qv3nfWtW7XvsbMMxkzVwCALl21S2t3HRaYLyqSxy7b0hr77xtjzPh7nwMA4PxSPbEHn1mgqVQk7/Xkbm0oBKR+QQEAODPvLDBbHQKGCuc9nkflHKfuv29bIQAA2FJdd21FWAAAgIPbKyy4DAkAAAgJCwAAQEhYAAAAQsICAAAQEhYAAICQsAAAAISEBQAAIOR7Fg5qyZeJjfHxl99eb10un3/wzvVWO1t/iZkvTQMAbonvWeAXUqHbsthNAWGLkJDsUbin/e31QwUAcCuEBZra8xV+gQEAYJm7vgypLiTr4+zrz0VwXic6R0vGz/J+ImO2H5IuR+p6h6G8VCmp16v7k3qdufOvtyvv19uV6n317T/JY/WtAwCwt776p6W7f2chFYm5lcoiMvfVD1IuRFPr68utNGb8Pku3H5KDQHm5UhkOcsgo+/O/WT4HkdxXtqnKbbq2T8vXPC8AAPfkbsNCXyGbDRWjQ9sPGRp/yNLth5TFfx0E9rbWsadtW5w7AIBb4DMLjaQCNAWS3Foox2+1j1a2OD8AACwjLDSUX7XOhfHayvFz21K6FCm3Oe88lPMWGAAAjueuw8JQgVr2tyhml44/Zpu0zty5159RqKWAkFtLc+c/xpLzAwBw6/w1pEJ9nH39qW/ofik6h0PjR4bWqfeT16mXR8V/Uhb+9Tp9fUkUGtL+px57Vs69HGfM7SxaVkr9Sd86AAB7yzXL1nyDM7OksFCHg2jZULHe2pj97z1HAIAhe4UFn1mgqVSE7/XkHgoBqV9QAADo5p0FZuu7TKm2dVEuBAAAtyTVNnsQFgAA4OD2CgsuQwIAAELCAgAAEBIWAACAkLAAAACEhAUAACAkLAAAACFhAQAACO0aFtLfi93rb8YCAAD9dg0L6cveUhMYAADgeFyGBAAAhIQFAAAgJCwAAAAhYQEAAAgdIizkDzn7oDMAABzHIcJCCgn5LyMBAADH4DIkAAAgJCwAAAAhYQEAAAgJCwAAQGjXsJD/ApIPNgMAwPHsGhb8BSQAADgulyEBAAAhYQEAAAgJCwAAQEhYAAAAQsICAAAQEhYAAICQsAAAAISEBQAAICQsAAAAIWEBAAAICQsAAEBIWAAAAELCAgAAEBoVFn71q19dbwEAAFvasxYfFRbefffd6y0AAGBLe9bio8LC06dPr7cAAIAt7VmLjwoLH3300eXDDz+83gMAALbw+PHjH2vxvTx49dr1dq9vvvnm8pvf/Obyj3/847oEAABo5Y033rh89dVXl7fffvu6ZHujw0L27Nmzy/Pnzy8vXry4fP/999elAADAUo8ePbq89957lydPnlw++eST69L9TA4LAADAffA9CwAAQEhYAAAAQsICAAAQEhYAAICQsAAAAISEBQAAICQsAAAAIWEBAAAICQsAAEBIWAAAAELCAgAAEBIWAACAkLAAAACEhAUAACAkLAAAACFhAQAACAkLAABASFgAAABCwgIAABASFgAAgJCwAAAABC6XfwIdNtIC+PRG/gAAAABJRU5ErkJggg==;" vertex="1" parent="1">
          <mxGeometry x="100" y="350" width="545.6" height="180" as="geometry" />
        </mxCell>
        <mxCell id="bbH6vb18r9si8D3Xo2T3-3" value="" style="shape=image;verticalLabelPosition=bottom;labelBackgroundColor=default;verticalAlign=top;aspect=fixed;imageAspect=0;image=data:image/png,iVBORw0KGgoAAAANSUhEUgAAAwgAAADpCAYAAACA9RCtAAAAAXNSR0IArs4c6QAAAARnQU1BAACxjwv8YQUAAAAJcEhZcwAADsMAAA7DAcdvqGQAABBmSURBVHhe7d096yRVmwfgdlPD8VlGWSNjYYMBMRLNZkyFSYfFcEH8JCJsKIuJwYCB0aSGvjDBgplg5IKyOF/AxJ17nr6Px7Leuuu1u68LDlNdp+rUW/+Z+9dd3f3SH88dAAAAnvuX478AAAACAgAA8CcBYaR/ffM/jlMAAHC9BIRKhIBsNeEAAIBb4UPKR80Q8H8//PeLf+v5OW8pfUFk6W0DAEAYDAhjXj2/9OK1LQSsGQzCLZxnAAD2b5ZbjMYUt5coCvK1i/LcZt0AAGAtowNCW+EaLV1DSKiPp55e2rUGLAAALs/oW4z6Cua6wO1arqsIHjtu7dR1cvm2YxnaRts6tXP28VRD+z3ntgAAuG2z3GLUV6BGIdtVRIeuvlPX6dtOX98UfWMutU0AAFjSLO8ghLoYHvtK95R1xo4V6r4wdswwdXttYw5p7m+YexsAANBm0d9BGCpipxS29dhLbqfNKdurlz1X1zayAQDAXFb5obQxRWxXId2cf25hfMmFdJyDOYIGAAAMWSUgZIHb1to0i/mh5dPaIaBve1P2JdatGwAArGWVgHCOruJ4TFC4Vrd63AAArGf2gNBW1GexP9TadPW3Fct9BfQSxfVc24tll9g/AAA41SwBYai4HSqkm/05rzm/K0Rci+bxAgDA2iYFhGYR3yzg68dtxe9cBfFa20mnbG9MqOkbr2usmJ8NAADmMvp3EIb0FcJDY7StO/c6sXz2N9ftmh/G9HVpW6fL0FihHq9e/pTtAABAn8m3GEVxOlSg9vV39c25Tt9YU5yzj11i+b79P3U8AAA4x+A7CAAAwO3Y7decAgAA6xMQAACAQkAAAAAKAQEAACgEBAAAoBAQAACAQkAAAAAKAQEAACgEBAAAoBAQAACAQkAAAAAKAQEAACgEBAAAoBAQAACAQkAAAAAKAQEAACgEBAAAoBAQAACAQkAAAAAKAQEAACgEBAAAoBAQAACAQkAAAAAKAQEAACgEBAAAoBAQAACAQkAAAAAKAQEAAChe+uO543Snx48fH548eXJ4+vTp4ddffz3OBQAAprp79+7h3r17hwcPHhwePnx4nLud3oDw888/Hz7++OPD119/fZwDAAAs5d133z188sknh9dff/04Z329AeH+/fuH77///vgIAABY2ltvvfXi7p2tdH4G4YsvvhAOAABgZd99992LWnwrnQHhq6++Ok4BAABr2rIW7wwIP/zww3EKAABY05a1eOdnEO7cuXOcAgAA1vbs2bPj1Lr8DgIAAFAICAAAQCEgAAAAhYAAAAAUAgIAAFAICAAAQCEgAAAAhYAAAAAUAgIAAFAICAAAQCEgAAAAhYAAAAAUAgIAAFAICAAAQCEgXKBnz56VBnviuQkAl++lP547Tv/FnTt3jlPsTRRfXdfns4/+Wph9+Om81/HSxw/1NpYYP8Q22sZe8/i2vDZ9z1EAYJytXnATEC5QV/HVVpR2FarnWHr8UI8399hhiTGbYhthzLla6hjDGsfZtQ0BAQCm2yogrHqL0Qff/HSc+lPXvLrV8nHfMkPiZLed8Jx3bv+1W7vgjOksduewRDHe1LeNpbcd1jjGqW717wcALsXqn0EYKuaj/8u33yitTY7Rt0yXKEzilc1obUXK1P6t1QX1nMX1Fpba/xg329y2LM4v/XoDAPuwakAYKuYzHIxxajBIUdj3mdrf55dXHrW2uURxGi2L33y8lNzG3Or9n1t9XqLF460scYxLnLNaXpsp+54BGwDYp02/xeiUQFBrrnPKGPGqf7Yhc4eFV3/7vLXNpS7csviNtoQlx839X8JS455q7vOX521peW2iLfUcAAC2teuvOR26HelU9e1BW7yC2fbuQbQ51UXiUgVjFoZLjL/UPu/JUucvxs1WPwYAOMVmAWHo3YP6cwZpzsCwxecH2t49iLa2se+gtMmCs6+4PXf8GLMuaGO6bTtz7H/oKp6njD9kqfMX49Wtnte05PGNsfX2AYB+q3/NaVvhX6v7myGi+fgczcKkPs7o6zvuof619O1Hs+jtKhDDqcfSVVA3t3Hu+GHJ/Q9rjx9yG2ucvxTbaju2MNf17xo/xDa6xp/j+ADgFuT/mWvzOwgXqK/4GmuOMfoYf5prP39bn18AuATx/+UWBIQLNKW4yifaUtfX+NNcy/HFdtq2sfX5BYBLkv9vrk1AuED1k8V1Yk88NwFgPgICAABQbBUQdv01pwAAwLoEBAAAoBAQAACAQkAAAAAKAQEAACgEBAAAoBAQAACAYrOA8F//82+lLWWr747tE/u0x/2ay7UfX58PvvmptD1aY7+WvP6njHvLz0MAmGqTgBCh4D///X9LW0IUB37s7e8+++jZXxrz+fLtN160Le01nMwh/p7HFP35t+/vHwDOc5W3GO05HOyhcPnw0zsv2hLmPD6vAF+epZ/fMbbnBQAsa3cBob71qHn7UT5u6xuj7dXVrnl1q+XjvmW6RGGTbQvxjkEdDGK67V2Ec/dxzuOLMc4tNLv2Ieed2z+HvudNPm7rS9lXt3p+PZ2Pm/r6wrnHn+sNrfvLK4+OU+2G+gGAZa0aEOrCvq3Iz8f1rUdty2R/sy9EcdJXWPYVRiH681aRrttFcoxTbylZ+tXVU819i9Fcxzd0DfvkutHaCtWp/VO0PW+az8f6+dfXl+vX/zan83Gtb/yp8rwtbYlrAwD8adWAUBf+9XStnjfUf6q2gqmWxdMYY5ebU7yy2tZOlZ8/6LrNaK1Cr00W6OcaWndq/1T186btObT082rM+HEOlj4PAMB+XfRnEKaEhXBKIKg111m6qEuv/vZ5aztFBoOlPoOwtQgY2YZsERbiOVe3W9EMtKc+HiOvu3ADANNc5YeU57K3Aq4umup2ir0HgyjuxhT3bbI4zLZHESab7RR1uDh13S01A+2pj8fI637u8wcA+Kddfkg5tX3GYC5DBVaGg3qZnLeVumiq21jNDyV33WaUr8RuZY4ib8n9n3J+pj6HMlQsGQ6mHB8AcPl2FRDylqEIBhkOTr2NaExx2RUOYl70dfWHKYVZXXjl9NC+LiE/gzC3OY/vnJCQ65y7zanyuVNP5+OQz526r+4fY2jd+jnc1r+k+tzn9BLXIsaMaw0ALOOlP547Tv/FJf8HrICYzjncnyj4mwG1bd4c9nz9h/bNcxeAaxH/p23hKj+DEMXBVif00sV5U2Ddrr1ff89NAFjeVb6DkBQTXJvmbUNLvHuwV6f8Pceywd8/AJcs/z9b21UHBAAAuFRbBQRfcwoAABQCAgAAUAgIAABAISAAAACFgAAAABQCAgAAUAgIAABAISAAAADFzf1Q2i+vPHrx76u/ff7i3y65XOhadqtfaq5/NKO5/aFfkO1b9xLMec6HzhUAwJbqum1N3kFoEeEgQkG2NnMWqueIbZ+z/XPXS2s9UT/76Flptdj3OfYhr9+UcwEAcI1u7h2EMTIgdNk6HMyx/SljZIG+1DmIUPDhp/1jTz0HW19DAIAhWXOt7abeQYjCP9uS4mK2XdCcd27/kFzvnHVPkYX1EtsZEw4AAFjOTQWEvluGQh0euoJEFMV9rzxnf7S2Anpqf59cbw25nVP3cayuW4zSOecHAIBhPoNQqQPEUJjoMlSgT+3fk7aQkMGq2U6R7yJk6woJAADMT0CYWRTL2YZceljIY6z3M4NVs51iyVuM8tpcUhADAFiTgDCjLDyzXbO2cBDa3j2Ithd5bXL/AQD4KwFhIddcgHaFg9D27kG0U9S3FLm9CABgXTf1Naddr2Q3C9hYrq+ozXcK2jSDQb1c33phqD91Ldfcdupadsy2ms5d7xTNUNB2y9HU/VjjOAAApuiq7ZbmdxDOsHVxOcf2L71Anrr/l378AMD1i3plC24xOkMUlltdMBT3AABLEhDOtHVIiG2fs/1z19uL2Pc5wkFev0s+FwAAS3CLEQAA7NBWL2R6BwEAACgEBAAAoBAQAACAQkAAAAAKAQEAACgEBAAAoBAQAACAwu8gUNTftbvE9f/gm5+OU4fDl2+/cZxazlw/qjaXve0PALBvfgeBzUXxumQBG6FgjWAQuorxzz7a7peTY3+2+kMHABhLQODq7PmVeiEBANg7txitrFkcNs9zX38WvrlM2zWaMn7K7bQZs/6QuNWo652E+jak0Fyu2R+ay7Ttf9c7Bx9++udysUw8zmXrvpD9qfk4NLfT7A995zfkOT7n3AIA16NZd63FOwgbiMIvW60uDLOv+cTI4jJaX1+22pjx+0xdf0gW//WtSHUgyGBR9+e/Kc9BUxTqWazndFvxnkV/tGaxPySXr8duGyP2b87zBgAwJwFhRV3Fa63ub1t2aP0hQ+MPmbr+kLrgbxb/a2gLDaeo1z93rDivS5xbAIAxBIQrEkVlhJBsS6jHX2obe3FOgR/vGNQNAODSCAhXJl99zrAwt3r8bGuK24yybfEOw5AIFc0GAHBJBISVDRXtdf8SBf7U8cesE8ucu+/Nzxw0RSjItqWudwfmeNdgyvkDAJjKtxitrFn4Nc9zX3/0DT2utV3DofHbDC3T3E4u05zfVvCHuthvLtPXF9qCQmy/7dhTXcTXr/DH/KFX/HPdWK5t+baA0FxmaP+6zh8AcFva6q41CAhcjAgIzUDQNm+oAN/amP3b+zEAAMvbKiC4xYirE4X1Vn9QQ4YK/+gXDgCALXkHgYvSdwtS094KbYU/AHCKqB22ICAAAMAObRUQ3GIEAAAUAgIAAFAICAAAQCEgAAAAhYAAAAAUAgIAAFAICAAAQHFzASG+T3ar75QFAIC9u7mAED8AF01IAACAv3OLEQAAUAgIAABAISAAAACFgAAAABQ3GxDyg8o+rAwAAH+62YAQwSC/0QgAAPgntxgBAACFgAAAABQCAgAAUAgIAABAcXMBIb+5yIeTAQDg724uIPjmIgAA6OYWIwAAoBAQAACAQkAAAAAKAQEAACgEBAAAoBAQAACAQkAAAACK1QNC/lAZAACwP6sHhPyhMiEBAAD2xy1GAABAISAAAACFgAAAABQCAgAAUGwWEPKDyj6sDAAA+7FZQIhgkN9oBAAA7INbjAAAgEJAAAAACgEBAAAoBAQAAKBYPSDkNxf5cDIAAOzP6gHBNxcBAMB+ucUIAAAoBAQAAKAQEAAAgEJAAAAACgEBAAAoBAQAAKAQEAAAgEJAAAAACgEBAAAoBAQAAKAQEAAAgEJAAAAACgEBAAAoOgPCP/7xj+MUAACwpi1r8c6A8Oabbx6nAACANW1Zi3cGhEePHh2nAACANW1Zi3cGhPfff//w3nvvHR8BAABruH///otafCsv/fHccfpvfvzxx8M777xz+P33349zAACApbz88suHb7/99vDaa68d56yvNyCkx48fH548eXJ4+vTp4ddffz3OBQAAprp79+7h3r17hwcPHhwePnx4nLudUQEBAAC4DX4HAQAAKAQEAACgEBAAAIBCQAAAAAoBAQAAKAQEAACgEBAAAIBCQAAAAAoBAQAAKAQEAACgEBAAAIBCQAAAAAoBAQAAKAQEAACgEBAAAIBCQAAAAAoBAQAAKAQEAACgEBAAAIBCQAAAAAoBAQAAKAQEAADg6HD4fxZ2CMWior5BAAAAAElFTkSuQmCC;" vertex="1" parent="1">
          <mxGeometry x="800" y="10" width="599.47" height="180" as="geometry" />
        </mxCell>
        <mxCell id="bbH6vb18r9si8D3Xo2T3-6" value="" style="group" vertex="1" connectable="0" parent="1">
          <mxGeometry x="120" y="180" width="160" height="150" as="geometry" />
        </mxCell>
        <mxCell id="bbH6vb18r9si8D3Xo2T3-4" value="" style="endArrow=none;html=1;rounded=0;" edge="1" parent="bbH6vb18r9si8D3Xo2T3-6">
          <mxGeometry width="50" height="50" relative="1" as="geometry">
            <mxPoint x="80" y="150" as="sourcePoint" />
            <mxPoint x="80" as="targetPoint" />
          </mxGeometry>
        </mxCell>
        <mxCell id="bbH6vb18r9si8D3Xo2T3-5" value="" style="endArrow=none;html=1;rounded=0;" edge="1" parent="bbH6vb18r9si8D3Xo2T3-6">
          <mxGeometry width="50" height="50" relative="1" as="geometry">
            <mxPoint x="160" y="40" as="sourcePoint" />
            <mxPoint y="40" as="targetPoint" />
          </mxGeometry>
        </mxCell>
        <mxCell id="bbH6vb18r9si8D3Xo2T3-10" value="&lt;span style=&quot;font-size: 14px;&quot;&gt;arr&lt;/span&gt;" style="text;html=1;align=center;verticalAlign=middle;whiteSpace=wrap;rounded=0;" vertex="1" parent="bbH6vb18r9si8D3Xo2T3-6">
          <mxGeometry x="10" y="10" width="60" height="30" as="geometry" />
        </mxCell>
        <mxCell id="bbH6vb18r9si8D3Xo2T3-15" value="&lt;font data-sider-select-id=&quot;86291647-3c4b-4805-bb57-5b186ff19a91&quot; style=&quot;font-size: 14px;&quot;&gt;Console&lt;/font&gt;" style="text;html=1;align=center;verticalAlign=middle;whiteSpace=wrap;rounded=0;" vertex="1" parent="bbH6vb18r9si8D3Xo2T3-6">
          <mxGeometry x="90" y="10" width="60" height="30" as="geometry" />
        </mxCell>
        <mxCell id="bbH6vb18r9si8D3Xo2T3-17" value="for(arr)..." style="text;html=1;align=center;verticalAlign=middle;whiteSpace=wrap;rounded=0;" vertex="1" parent="bbH6vb18r9si8D3Xo2T3-6">
          <mxGeometry x="10" y="40" width="60" height="30" as="geometry" />
        </mxCell>
        <mxCell id="bbH6vb18r9si8D3Xo2T3-24" value="&lt;div data-sider-select-id=&quot;8a84af44-69b3-4e8a-aa85-eaf0bbb1aa41&quot;&gt;Never,&lt;/div&gt;&lt;div&gt;Going,&lt;/div&gt;&lt;div&gt;To,&lt;/div&gt;&lt;div&gt;Give,&lt;/div&gt;&lt;div&gt;You,&lt;/div&gt;&lt;div&gt;Up,&lt;/div&gt;" style="text;html=1;align=center;verticalAlign=middle;whiteSpace=wrap;rounded=0;" vertex="1" parent="bbH6vb18r9si8D3Xo2T3-6">
          <mxGeometry x="90" y="80" width="60" height="30" as="geometry" />
        </mxCell>
        <mxCell id="bbH6vb18r9si8D3Xo2T3-32" value="" style="group" vertex="1" connectable="0" parent="1">
          <mxGeometry x="180" y="540" width="160" height="150" as="geometry" />
        </mxCell>
        <mxCell id="bbH6vb18r9si8D3Xo2T3-33" value="" style="endArrow=none;html=1;rounded=0;" edge="1" parent="bbH6vb18r9si8D3Xo2T3-32">
          <mxGeometry width="50" height="50" relative="1" as="geometry">
            <mxPoint x="80" y="150" as="sourcePoint" />
            <mxPoint x="80" as="targetPoint" />
          </mxGeometry>
        </mxCell>
        <mxCell id="bbH6vb18r9si8D3Xo2T3-34" value="" style="endArrow=none;html=1;rounded=0;" edge="1" parent="bbH6vb18r9si8D3Xo2T3-32">
          <mxGeometry width="50" height="50" relative="1" as="geometry">
            <mxPoint x="160" y="40" as="sourcePoint" />
            <mxPoint y="40" as="targetPoint" />
          </mxGeometry>
        </mxCell>
        <mxCell id="bbH6vb18r9si8D3Xo2T3-35" value="&lt;span style=&quot;font-size: 14px;&quot;&gt;arr&lt;/span&gt;" style="text;html=1;align=center;verticalAlign=middle;whiteSpace=wrap;rounded=0;" vertex="1" parent="bbH6vb18r9si8D3Xo2T3-32">
          <mxGeometry x="10" y="10" width="60" height="30" as="geometry" />
        </mxCell>
        <mxCell id="bbH6vb18r9si8D3Xo2T3-36" value="&lt;font data-sider-select-id=&quot;86291647-3c4b-4805-bb57-5b186ff19a91&quot; style=&quot;font-size: 14px;&quot;&gt;Console&lt;/font&gt;" style="text;html=1;align=center;verticalAlign=middle;whiteSpace=wrap;rounded=0;" vertex="1" parent="bbH6vb18r9si8D3Xo2T3-32">
          <mxGeometry x="90" y="10" width="60" height="30" as="geometry" />
        </mxCell>
        <mxCell id="bbH6vb18r9si8D3Xo2T3-37" value="for(arr)..." style="text;html=1;align=center;verticalAlign=middle;whiteSpace=wrap;rounded=0;" vertex="1" parent="bbH6vb18r9si8D3Xo2T3-32">
          <mxGeometry x="10" y="40" width="60" height="30" as="geometry" />
        </mxCell>
        <mxCell id="bbH6vb18r9si8D3Xo2T3-38" value="&lt;div data-sider-select-id=&quot;8a84af44-69b3-4e8a-aa85-eaf0bbb1aa41&quot;&gt;&lt;div data-sider-select-id=&quot;8a84af44-69b3-4e8a-aa85-eaf0bbb1aa41&quot;&gt;2,&lt;span style=&quot;background-color: initial;&quot;&gt;2,&lt;/span&gt;&lt;span style=&quot;background-color: initial;&quot;&gt;4,&lt;/span&gt;&lt;span style=&quot;background-color: initial;&quot;&gt;6,&lt;/span&gt;&lt;span style=&quot;background-color: initial;&quot;&gt;6,&lt;/span&gt;&lt;span style=&quot;background-color: initial;&quot;&gt;12,&lt;/span&gt;&lt;span style=&quot;background-color: initial;&quot;&gt;8,&lt;/span&gt;&lt;span style=&quot;background-color: initial;&quot;&gt;20,&lt;/span&gt;&lt;span style=&quot;background-color: initial;&quot;&gt;10,&lt;/span&gt;&lt;span style=&quot;background-color: initial;&quot;&gt;30&lt;/span&gt;&lt;/div&gt;&lt;/div&gt;" style="text;html=1;align=center;verticalAlign=middle;whiteSpace=wrap;rounded=0;" vertex="1" parent="1">
          <mxGeometry x="300" y="585" width="60" height="30" as="geometry" />
        </mxCell>
        <mxCell id="bbH6vb18r9si8D3Xo2T3-49" value="" style="group" vertex="1" connectable="0" parent="1">
          <mxGeometry x="900" y="180" width="160" height="150" as="geometry" />
        </mxCell>
        <mxCell id="bbH6vb18r9si8D3Xo2T3-50" value="" style="endArrow=none;html=1;rounded=0;" edge="1" parent="bbH6vb18r9si8D3Xo2T3-49">
          <mxGeometry width="50" height="50" relative="1" as="geometry">
            <mxPoint x="80" y="150" as="sourcePoint" />
            <mxPoint x="80" as="targetPoint" />
          </mxGeometry>
        </mxCell>
        <mxCell id="bbH6vb18r9si8D3Xo2T3-51" value="" style="endArrow=none;html=1;rounded=0;" edge="1" parent="bbH6vb18r9si8D3Xo2T3-49">
          <mxGeometry width="50" height="50" relative="1" as="geometry">
            <mxPoint x="160" y="40" as="sourcePoint" />
            <mxPoint y="40" as="targetPoint" />
          </mxGeometry>
        </mxCell>
        <mxCell id="bbH6vb18r9si8D3Xo2T3-52" value="&lt;span style=&quot;font-size: 14px;&quot;&gt;arr&lt;/span&gt;" style="text;html=1;align=center;verticalAlign=middle;whiteSpace=wrap;rounded=0;" vertex="1" parent="bbH6vb18r9si8D3Xo2T3-49">
          <mxGeometry x="10" y="10" width="60" height="30" as="geometry" />
        </mxCell>
        <mxCell id="bbH6vb18r9si8D3Xo2T3-53" value="&lt;font data-sider-select-id=&quot;86291647-3c4b-4805-bb57-5b186ff19a91&quot; style=&quot;font-size: 14px;&quot;&gt;Console&lt;/font&gt;" style="text;html=1;align=center;verticalAlign=middle;whiteSpace=wrap;rounded=0;" vertex="1" parent="bbH6vb18r9si8D3Xo2T3-49">
          <mxGeometry x="90" y="10" width="60" height="30" as="geometry" />
        </mxCell>
        <mxCell id="bbH6vb18r9si8D3Xo2T3-54" value="for(arr)..." style="text;html=1;align=center;verticalAlign=middle;whiteSpace=wrap;rounded=0;" vertex="1" parent="bbH6vb18r9si8D3Xo2T3-49">
          <mxGeometry x="10" y="40" width="60" height="30" as="geometry" />
        </mxCell>
        <mxCell id="bbH6vb18r9si8D3Xo2T3-55" value="&lt;pre data-sider-select-id=&quot;551289d4-054a-4d99-880f-d67c820aa11e&quot; style=&quot;box-sizing: inherit; color: rgba(0, 0, 0, 0.87); font-size: 14px; font-style: normal; font-variant-ligatures: normal; font-variant-caps: normal; font-weight: 400; letter-spacing: normal; orphans: 2; text-align: start; text-indent: 0px; text-transform: none; widows: 2; word-spacing: 0px; -webkit-text-stroke-width: 0px; background-color: rgb(255, 255, 255); text-decoration-thickness: initial; text-decoration-style: initial; text-decoration-color: initial;&quot;&gt;true,&lt;br&gt;true,&lt;br&gt;true&lt;/pre&gt;" style="text;whiteSpace=wrap;html=1;" vertex="1" parent="bbH6vb18r9si8D3Xo2T3-49">
          <mxGeometry x="85" y="40" width="70" height="100" as="geometry" />
        </mxCell>
      </root>
    </mxGraphModel>
  </diagram>
</mxfile>
